<?xml version="1.0" encoding="iso-8859-1"?>
<!-- Generator: Adobe Illustrator 15.0.0, SVG Export Plug-In . SVG Version: 6.00 Build 0)  -->
<!DOCTYPE svg PUBLIC "-//W3C//DTD SVG 1.1//EN" "http://www.w3.org/Graphics/SVG/1.1/DTD/svg11.dtd">
<svg version="1.1" id="Layer_1" xmlns="http://www.w3.org/2000/svg" xmlns:xlink="http://www.w3.org/1999/xlink" x="0px" y="0px"
	 width="13px" height="13px" viewBox="0 0 13 13" style="enable-background:new 0 0 13 13;" xml:space="preserve">
<path style="fill:#F7931E;" d="M12.353,11.166l-1.745-2.217c-0.134-0.17-0.296-0.292-0.465-0.391
	c0.63-0.886,1.004-1.964,1.004-3.133C11.146,2.434,8.712,0,5.719,0C2.727,0,0.293,2.434,0.293,5.426
	c0,2.992,2.434,5.426,5.426,5.426c1.165,0,2.242-0.373,3.126-0.998c0.054,0.113,0.106,0.228,0.19,0.334l1.747,2.217
	C11.076,12.777,11.479,13,11.86,13c0.198,0,0.381-0.062,0.526-0.177C12.826,12.477,12.812,11.749,12.353,11.166 M5.719,9.249
	c-2.107,0-3.823-1.716-3.823-3.823s1.716-3.824,3.823-3.824c2.109,0,3.825,1.716,3.825,3.824S7.828,9.249,5.719,9.249"/>
</svg>
