<?xml version="1.0" encoding="utf-8"?>
<!-- Generator: Adobe Illustrator 15.0.0, SVG Export Plug-In . SVG Version: 6.00 Build 0)  -->
<!DOCTYPE svg PUBLIC "-//W3C//DTD SVG 1.1//EN" "http://www.w3.org/Graphics/SVG/1.1/DTD/svg11.dtd">
<svg version="1.1" id="Layer_1" xmlns="http://www.w3.org/2000/svg" xmlns:xlink="http://www.w3.org/1999/xlink" x="0px" y="0px"
	 width="13px" height="14px" viewBox="201.5 217 13 14" enable-background="new 201.5 217 13 14" xml:space="preserve">
<g id="icomoon-ignore">
</g>
<path fill="#F97C00" d="M202.5,230h2.25v-2.25h-2.25V230z M205.25,230h2.5v-2.25h-2.5V230z M202.5,227.25h2.25v-2.5h-2.25V227.25z
	 M205.25,227.25h2.5v-2.5h-2.5V227.25z M202.5,224.25h2.25V222h-2.25V224.25z M208.25,230h2.5v-2.25h-2.5V230z M205.25,224.25h2.5
	V222h-2.5V224.25z M211.25,230h2.25v-2.25h-2.25V230z M208.25,227.25h2.5v-2.5h-2.5V227.25z M205.5,220.5v-2.25
	c0-0.068-0.025-0.126-0.074-0.176c-0.05-0.049-0.108-0.074-0.176-0.074h-0.5c-0.067,0-0.126,0.025-0.176,0.074
	c-0.05,0.05-0.074,0.108-0.074,0.176v2.25c0,0.068,0.024,0.126,0.074,0.176c0.049,0.049,0.108,0.074,0.176,0.074h0.5
	c0.068,0,0.126-0.025,0.176-0.074C205.475,220.626,205.5,220.568,205.5,220.5z M211.25,227.25h2.25v-2.5h-2.25V227.25z
	 M208.25,224.25h2.5V222h-2.5V224.25z M211.25,224.25h2.25V222h-2.25V224.25z M211.5,220.5v-2.25c0-0.068-0.024-0.126-0.074-0.176
	c-0.049-0.049-0.108-0.074-0.176-0.074h-0.5c-0.068,0-0.126,0.025-0.176,0.074c-0.049,0.05-0.074,0.108-0.074,0.176v2.25
	c0,0.068,0.025,0.126,0.074,0.176c0.05,0.049,0.107,0.074,0.176,0.074h0.5c0.067,0,0.127-0.025,0.176-0.074
	C211.476,220.626,211.5,220.568,211.5,220.5z M214.5,220v10c0,0.271-0.1,0.506-0.297,0.703S213.771,231,213.5,231h-11
	c-0.271,0-0.505-0.1-0.703-0.297S201.5,230.271,201.5,230v-10c0-0.271,0.099-0.505,0.297-0.703S202.229,219,202.5,219h1v-0.75
	c0-0.344,0.123-0.638,0.367-0.883c0.245-0.245,0.539-0.367,0.883-0.367h0.5c0.344,0,0.638,0.123,0.883,0.367
	s0.367,0.539,0.367,0.883V219h3v-0.75c0-0.344,0.123-0.638,0.367-0.883S210.406,217,210.75,217h0.5c0.344,0,0.638,0.123,0.883,0.367
	c0.244,0.245,0.367,0.539,0.367,0.883V219h1c0.271,0,0.506,0.099,0.703,0.297S214.5,219.729,214.5,220z"/>
</svg>
