<?xml version="1.0" encoding="utf-8"?>
<!-- Generator: Adobe Illustrator 15.0.0, SVG Export Plug-In . SVG Version: 6.00 Build 0)  -->
<!DOCTYPE svg PUBLIC "-//W3C//DTD SVG 1.1//EN" "http://www.w3.org/Graphics/SVG/1.1/DTD/svg11.dtd">
<svg version="1.1" xmlns="http://www.w3.org/2000/svg" xmlns:xlink="http://www.w3.org/1999/xlink" x="0px" y="0px" width="40px"
	 height="30px" viewBox="0 0 40 30" enable-background="new 0 0 40 30" xml:space="preserve">
<g id="Layer_1">
</g>
<g id="Layer_4" display="none">
	<g display="inline">
		<path fill="#82C9F0" d="M24.493,2.868c-2.983-2.985-8.442-2.387-12.181,1.351c-2.041,2.042-3.214,4.937-3.239,6.964
			c-0.026,2.016,0.331,4.963-1.723,7.016l-5.408,5.408l1.812,1.811l5.408-5.406c2.054-2.055,5-1.697,7.016-1.721
			c2.018-0.025,4.924-1.199,6.963-3.243C26.866,11.312,27.479,5.853,24.493,2.868z M12.758,14.591
			c-1.951-1.953-1.338-5.882,1.353-8.573c2.692-2.691,6.608-3.304,8.573-1.352c1.949,1.951,1.34,5.879-1.353,8.572
			C18.639,15.929,14.723,16.541,12.758,14.591z"/>
		<path fill="#82C9F0" d="M22.557,21.375c0.675,0,1.323,0.268,1.799,0.754c0.993,0.994,0.993,2.615,0,3.611
			c-0.476,0.469-1.124,0.74-1.799,0.74c-0.677,0-1.328-0.271-1.799-0.752c-0.993-1.002-0.993-2.617,0-3.613
			C21.229,21.643,21.88,21.375,22.557,21.375 M22.557,18.824c-1.301,0-2.616,0.5-3.611,1.492c-1.989,1.99-1.989,5.217,0,7.221
			c0.995,0.994,2.311,1.492,3.611,1.492c1.298,0,2.611-0.498,3.609-1.492c1.99-1.988,1.99-5.217,0-7.221
			C25.168,19.324,23.854,18.824,22.557,18.824L22.557,18.824z"/>
	</g>
</g>
<g id="Layer_3" display="none">
	<g display="inline">
		<path fill="#FFFFFF" d="M24.493,2.868c-2.983-2.985-8.442-2.387-12.181,1.351c-2.041,2.042-3.214,4.937-3.239,6.964
			c-0.026,2.016,0.331,4.963-1.723,7.016l-5.408,5.408l1.812,1.811l5.408-5.406c2.054-2.055,5-1.697,7.016-1.721
			c2.018-0.025,4.924-1.199,6.963-3.243C26.866,11.312,27.479,5.853,24.493,2.868z M12.758,14.591
			c-1.951-1.953-1.338-5.882,1.353-8.573c2.692-2.691,6.608-3.304,8.573-1.352c1.949,1.951,1.34,5.879-1.353,8.572
			C18.639,15.929,14.723,16.541,12.758,14.591z"/>
		<path fill="#FFFFFF" d="M22.557,21.375c0.675,0,1.323,0.268,1.799,0.754c0.993,0.994,0.993,2.615,0,3.611
			c-0.476,0.469-1.124,0.74-1.799,0.74c-0.677,0-1.328-0.271-1.799-0.752c-0.993-1.002-0.993-2.617,0-3.613
			C21.229,21.643,21.88,21.375,22.557,21.375 M22.557,18.824c-1.301,0-2.616,0.5-3.611,1.492c-1.989,1.99-1.989,5.217,0,7.221
			c0.995,0.994,2.311,1.492,3.611,1.492c1.298,0,2.611-0.498,3.609-1.492c1.99-1.988,1.99-5.217,0-7.221
			C25.168,19.324,23.854,18.824,22.557,18.824L22.557,18.824z"/>
	</g>
</g>
<g id="Layer_5" display="none">
	<g display="inline">
		<circle fill="#82C9F0" cx="24.775" cy="25.44" r="2.095"/>
		<path fill="#82C9F0" d="M21.283,6.474L10.112,1v25.138H7.319v-2.417c-2.5,0.49-4.189,1.384-4.189,2.417
			c0,1.536,3.756,2.794,8.379,2.794c4.622,0,8.38-1.258,8.38-2.794c0-1.383-3.018-2.528-6.984-2.751V10.748L21.283,6.474z"/>
	</g>
</g>
<g id="Layer_6" display="none">
	<g display="inline">
		<circle fill="#FFFFFF" cx="24.775" cy="25.44" r="2.095"/>
		<path fill="#FFFFFF" d="M21.283,6.474L10.112,1v25.138H7.319v-2.417c-2.5,0.49-4.189,1.384-4.189,2.417
			c0,1.536,3.756,2.794,8.379,2.794c4.622,0,8.38-1.258,8.38-2.794c0-1.383-3.018-2.528-6.984-2.751V10.748L21.283,6.474z"/>
	</g>
</g>
<g id="Layer_7" display="none">
	<path display="inline" fill="#82C9F0" d="M19.819,11.707c-0.247-3.853-1.81-7.608-4.736-10.536
		c-2.955,2.956-4.584,6.711-4.903,10.536c1.768,0.94,3.399,2.154,4.82,3.632C16.421,13.876,18.053,12.66,19.819,11.707z
		 M10.844,15.368c-0.193-0.139-0.415-0.263-0.621-0.401C10.429,15.118,10.65,15.229,10.844,15.368z M19.709,15.022
		c-0.181,0.125-0.371,0.221-0.553,0.358C19.338,15.243,19.528,15.146,19.709,15.022z M15,19.745
		c-2.969-4.53-8.036-7.527-13.809-7.527c0,7.347,4.64,13.562,11.088,15.868c0.871,0.316,1.783,0.553,2.721,0.703
		c0.938-0.164,1.837-0.4,2.722-0.703c6.449-2.306,11.088-8.521,11.088-15.868C23.038,12.218,17.97,15.215,15,19.745z"/>
</g>
<g id="Layer_8" display="none">
	<path display="inline" fill="#FFFFFF" d="M19.819,11.707c-0.247-3.853-1.81-7.608-4.736-10.536
		c-2.955,2.956-4.584,6.711-4.903,10.536c1.768,0.94,3.399,2.154,4.82,3.632C16.421,13.876,18.053,12.66,19.819,11.707z
		 M10.844,15.368c-0.193-0.139-0.415-0.263-0.621-0.401C10.429,15.118,10.65,15.229,10.844,15.368z M19.709,15.022
		c-0.181,0.125-0.371,0.221-0.553,0.358C19.338,15.243,19.528,15.146,19.709,15.022z M15,19.745
		c-2.969-4.53-8.036-7.527-13.809-7.527c0,7.347,4.64,13.562,11.088,15.868c0.871,0.316,1.783,0.553,2.721,0.703
		c0.938-0.164,1.837-0.4,2.722-0.703c6.449-2.306,11.088-8.521,11.088-15.868C23.038,12.218,17.97,15.215,15,19.745z"/>
</g>
<g id="Layer_9" display="none">
	<g display="inline">
		<path fill="#82C9F0" d="M22.976,6.655c1.359,0,2.473-1.113,2.473-2.473c0-1.36-1.113-2.473-2.473-2.473
			c-1.36,0-2.473,1.113-2.473,2.473C20.503,5.542,21.615,6.655,22.976,6.655z"/>
		<path fill="#82C9F0" d="M39.01,12.347c-0.159-0.751-6.121-1.761-13.903-0.972c-0.242-0.279-0.466-0.571-0.647-0.887l-1.236-1.979
			c-0.494-0.742-1.235-1.236-2.102-1.236c-0.371,0-0.618,0.124-0.989,0.124l-6.429,2.719v3.628
			c-7.657,2.437-12.889,5.848-12.711,6.684c0.201,0.943,6.88,1.925,15.348,0.813l-1.399,7.05h2.597l1.688-7.499
			c0.544-0.099,1.092-0.203,1.646-0.32c0.291-0.062,0.571-0.132,0.858-0.199l0.63,0.601v7.418h2.474v-8.819
			C33.276,17.013,39.183,13.161,39.01,12.347z M16.176,13.024v-1.301l2.226-0.866l-0.336,1.692
			C17.424,12.699,16.794,12.857,16.176,13.024z"/>
	</g>
</g>
<g id="Layer_10">
	<g>
		<path fill="#FFFFFF" d="M22.976,6.655c1.359,0,2.473-1.113,2.473-2.473c0-1.36-1.113-2.473-2.473-2.473
			c-1.36,0-2.473,1.113-2.473,2.473C20.503,5.542,21.615,6.655,22.976,6.655z"/>
		<path fill="#FFFFFF" d="M39.01,12.347c-0.159-0.751-6.121-1.761-13.903-0.972c-0.242-0.279-0.466-0.571-0.647-0.887l-1.236-1.979
			c-0.494-0.742-1.235-1.236-2.102-1.236c-0.371,0-0.618,0.124-0.989,0.124l-6.429,2.719v3.628
			c-7.657,2.437-12.889,5.848-12.711,6.684c0.201,0.943,6.88,1.925,15.348,0.813l-1.399,7.05h2.597l1.688-7.499
			c0.544-0.099,1.092-0.203,1.646-0.32c0.291-0.062,0.571-0.132,0.858-0.199l0.63,0.601v7.418h2.474v-8.819
			C33.276,17.013,39.183,13.161,39.01,12.347z M16.176,13.024v-1.301l2.226-0.866l-0.336,1.692
			C17.424,12.699,16.794,12.857,16.176,13.024z"/>
	</g>
</g>
<g id="Layer_11" display="none">
	<path display="inline" fill="#82C9F0" d="M19.453,14.274V5.562l-4.357-4.356l-4.355,4.356v2.904H2.029v20.329h26.136V14.274H19.453
		z M7.837,25.889H4.933v-2.902h2.904V25.889z M7.837,20.082H4.933v-2.904h2.904V20.082z M7.837,14.274H4.933V11.37h2.904V14.274z
		 M16.55,25.889h-2.905v-2.902h2.905V25.889z M16.55,20.082h-2.905v-2.904h2.905V20.082z M16.55,14.274h-2.905V11.37h2.905V14.274z
		 M16.55,8.466h-2.905V5.562h2.905V8.466z M25.262,25.889h-2.905v-2.902h2.905V25.889z M25.262,20.082h-2.905v-2.904h2.905V20.082z"
		/>
</g>
<g id="Layer_12" display="none">
	<path display="inline" fill="#FFFFFF" d="M19.453,14.274V5.562l-4.357-4.356l-4.355,4.356v2.904H2.029v20.329h26.136V14.274H19.453
		z M7.837,25.889H4.933v-2.902h2.904V25.889z M7.837,20.082H4.933v-2.904h2.904V20.082z M7.837,14.274H4.933V11.37h2.904V14.274z
		 M16.55,25.889h-2.905v-2.902h2.905V25.889z M16.55,20.082h-2.905v-2.904h2.905V20.082z M16.55,14.274h-2.905V11.37h2.905V14.274z
		 M16.55,8.466h-2.905V5.562h2.905V8.466z M25.262,25.889h-2.905v-2.902h2.905V25.889z M25.262,20.082h-2.905v-2.904h2.905V20.082z"
		/>
</g>
<g id="Layer_13" display="none">
	<path display="inline" fill="#82C9F0" d="M14.979,22.925l8.488,5.122l-2.252-9.654l7.499-6.496l-9.874-0.838l-3.861-9.105
		l-3.858,9.105l-9.875,0.838l7.499,6.496l-2.252,9.654L14.979,22.925z"/>
</g>
<g id="Layer_14" display="none">
	<path display="inline" fill="#FFFFFF" d="M14.979,22.925l8.488,5.122l-2.252-9.654l7.499-6.496l-9.874-0.838l-3.861-9.105
		l-3.858,9.105l-9.875,0.838l7.499,6.496l-2.252,9.654L14.979,22.925z"/>
</g>
<g id="Layer_15" display="none">
	<path display="inline" fill="#82C9F0" d="M19.849,15.614c2.053,0,3.696-1.656,3.696-3.708s-1.644-3.708-3.696-3.708
		c-2.051,0-3.706,1.656-3.706,3.708S17.798,15.614,19.849,15.614z M9.963,15.614c2.052,0,3.695-1.656,3.695-3.708
		s-1.644-3.708-3.695-3.708s-3.707,1.656-3.707,3.708S7.911,15.614,9.963,15.614z M9.963,18.085c-2.879,0-8.65,1.445-8.65,4.325
		v3.09h17.301v-3.09C18.613,19.53,12.842,18.085,9.963,18.085z M19.849,18.085c-0.358,0-0.766,0.024-1.199,0.062
		c1.435,1.039,2.436,2.434,2.436,4.264v3.09H28.5v-3.09C28.5,19.53,22.729,18.085,19.849,18.085z"/>
</g>
</svg>
