<?xml version="1.0" standalone="no"?>
<!DOCTYPE svg PUBLIC "-//W3C//DTD SVG 20010904//EN"
 "http://www.w3.org/TR/2001/REC-SVG-20010904/DTD/svg10.dtd">
<svg version="1.0" xmlns="http://www.w3.org/2000/svg"
 width="133.000000pt" height="133.000000pt" viewBox="0 0 133.000000 133.000000"
 preserveAspectRatio="xMidYMid meet">
<metadata>
Created by potrace 1.14, written by Peter Selinger 2001-2017
</metadata>
<g transform="translate(0.000000,133.000000) scale(0.100000,-0.100000)"
fill="#000000" stroke="none">
<path d="M656 1188 c-4 -18 -8 -20 -18 -10 -18 18 -28 15 -28 -9 0 -16 -5 -20
-20 -16 -15 4 -20 0 -20 -14 0 -22 42 -49 48 -30 2 6 17 18 34 27 39 20 99 10
129 -22 30 -32 34 -106 9 -151 -10 -17 -16 -34 -13 -37 13 -13 30 -5 43 19 7
13 17 22 21 19 14 -8 21 16 9 31 -9 10 -7 16 7 23 17 10 17 11 -1 31 -12 13
-14 21 -7 21 16 0 10 35 -7 36 -23 3 -24 4 -13 18 9 10 8 16 -4 26 -11 9 -15
9 -15 1 0 -7 -4 -9 -10 -6 -5 3 -10 15 -10 26 0 22 -11 24 -28 7 -9 -9 -12 -8
-12 4 0 24 -18 32 -37 16 -13 -10 -17 -10 -20 0 -7 20 -30 14 -37 -10z"/>
<path d="M665 1128 c-33 -18 -55 -51 -55 -85 0 -32 -1 -33 -46 -33 -40 0 -45
2 -34 15 7 8 22 15 35 15 29 0 38 10 24 27 -16 19 -42 16 -72 -7 -14 -11 -35
-20 -46 -20 -35 0 -62 -35 -56 -72 3 -17 14 -37 23 -44 14 -11 18 -10 26 6 19
42 100 61 167 39 57 -19 54 -28 -4 -14 -44 10 -60 10 -85 -1 -18 -7 -32 -20
-32 -29 0 -18 13 -19 39 -3 15 9 31 9 74 -2 67 -16 101 -8 137 30 36 38 43 99
17 140 -25 39 -77 56 -112 38z m75 -48 c11 -11 20 -29 20 -40 0 -25 -35 -57
-60 -55 -26 2 -60 34 -60 57 0 24 35 58 60 58 11 0 29 -9 40 -20z m-256 -89
c-16 -10 -33 -16 -38 -13 -13 7 18 27 45 29 21 2 20 1 -7 -16z"/>
<path d="M684 1080 c-44 -17 -31 -80 16 -80 27 0 49 26 43 50 -7 27 -33 40
-59 30z"/>
<path d="M262 915 c-79 -42 -121 -231 -83 -379 20 -81 117 -236 148 -236 20 0
15 25 -11 51 -34 35 -82 125 -100 189 -38 134 -7 308 61 344 26 13 33 13 69
-3 22 -10 51 -31 63 -47 51 -65 122 -84 161 -42 11 12 20 27 20 33 0 6 15 11
33 11 17 0 48 3 67 7 31 6 36 4 37 -13 2 -28 29 -63 50 -67 34 -5 84 19 130
64 67 64 91 74 130 58 55 -23 88 -118 86 -245 -2 -91 -48 -207 -110 -279 -36
-42 -41 -61 -18 -61 19 0 87 92 118 160 33 72 45 126 45 199 0 181 -80 294
-184 260 -17 -5 -54 -33 -83 -61 -42 -42 -58 -51 -89 -52 l-37 -1 -2 45 c-1
25 -2 48 -2 53 -1 4 -20 -2 -43 -14 -34 -17 -53 -20 -100 -16 l-58 5 0 -29 c0
-62 -64 -58 -129 9 -60 63 -119 83 -169 57z"/>
<path d="M293 869 c-33 -12 -52 -49 -66 -130 -11 -59 -11 -89 -1 -146 19 -113
97 -254 125 -226 8 8 1 24 -24 59 -48 67 -79 172 -76 254 2 36 6 70 10 75 3 6
9 22 13 37 3 15 16 32 27 38 18 10 28 5 78 -43 62 -59 98 -77 112 -56 5 9 -1
18 -21 27 -16 8 -47 33 -68 56 -46 49 -79 66 -109 55z"/>
<path d="M984 868 c-10 -6 -35 -27 -55 -48 -20 -21 -51 -46 -68 -56 -31 -18
-42 -44 -18 -44 21 1 54 23 107 74 61 57 75 55 102 -15 17 -43 23 -181 9 -204
-3 -5 -6 -16 -7 -23 -2 -8 -6 -21 -10 -30 -8 -19 -11 -28 -13 -41 0 -4 -16
-28 -35 -53 -23 -30 -32 -49 -26 -58 32 -52 141 188 135 295 -9 148 -60 234
-121 203z"/>
<path d="M300 800 c0 -17 90 -99 131 -120 32 -17 39 -18 49 -5 10 13 7 17 -22
29 -19 8 -56 35 -82 60 -45 44 -76 58 -76 36z"/>
<path d="M942 764 c-24 -24 -59 -51 -78 -59 -20 -8 -33 -19 -29 -25 17 -27 77
2 149 73 25 25 42 48 39 51 -14 14 -41 1 -81 -40z"/>
<path d="M603 793 c-7 -3 -13 -11 -13 -18 0 -18 27 -27 33 -11 7 17 -5 34 -20
29z"/>
<path d="M640 776 c0 -8 4 -17 9 -20 11 -7 33 18 24 27 -12 12 -33 7 -33 -7z"/>
<path d="M692 774 c4 -21 22 -23 26 -1 2 10 -3 17 -13 17 -10 0 -15 -6 -13
-16z"/>
<path d="M282 748 c-14 -18 -12 -130 3 -189 17 -62 61 -139 80 -139 21 0 19
17 -6 51 -39 55 -68 189 -48 220 10 17 11 16 14 -41 3 -59 20 -117 45 -158 17
-27 24 -32 35 -22 12 10 11 17 -10 49 -24 39 -46 139 -28 128 6 -4 13 -24 17
-44 7 -48 44 -109 57 -96 6 6 4 23 -6 46 -23 56 -20 69 17 65 50 -5 43 16 -15
40 -29 12 -71 40 -92 62 -43 44 -48 46 -63 28z"/>
<path d="M976 720 c-21 -21 -63 -49 -93 -61 -60 -24 -65 -46 -10 -41 35 3 36
2 28 -26 -5 -16 -14 -38 -20 -50 -8 -15 -7 -23 3 -31 10 -8 17 -1 34 33 12 24
22 52 23 62 0 10 5 28 10 39 7 14 8 5 5 -34 -3 -29 -15 -69 -26 -89 -21 -34
-20 -70 0 -57 6 4 21 28 35 55 21 42 28 75 34 173 1 5 6 5 12 2 20 -13 0 -126
-37 -198 -39 -78 -38 -77 -21 -77 7 0 22 12 33 28 38 51 57 115 60 200 5 126
-5 136 -70 72z"/>
<path d="M509 708 c-1 -34 2 -101 5 -128 1 -8 7 -27 13 -41 25 -57 -12 -125
-99 -185 -39 -28 -49 -59 -26 -82 15 -15 54 -16 63 -2 15 24 22 7 9 -20 -30
-59 24 -94 74 -47 21 18 24 19 19 4 -22 -60 38 -96 74 -46 11 16 17 34 13 40
-4 7 -3 9 3 6 6 -4 13 -20 16 -35 7 -36 43 -49 69 -25 13 11 16 25 12 52 -5
35 -5 36 11 14 27 -38 49 -45 72 -23 21 18 21 64 2 76 -5 3 -9 10 -9 16 0 6 8
4 18 -5 35 -32 82 -15 82 28 0 14 -16 33 -45 54 -85 61 -117 130 -89 196 12
29 17 82 15 153 -1 21 -6 32 -16 32 -17 0 -17 -2 -17 -80 0 -30 -5 -66 -10
-80 -16 -41 -19 -103 -6 -135 11 -29 52 -74 112 -123 37 -31 26 -40 -17 -13
-33 20 -35 20 -51 3 -20 -23 -21 -46 -1 -62 8 -7 15 -20 15 -29 0 -11 -9 -5
-28 17 -26 31 -30 33 -55 21 -24 -11 -26 -16 -21 -51 4 -25 3 -38 -5 -38 -6 0
-11 13 -11 29 0 30 -13 45 -40 46 -24 1 -40 -16 -40 -41 0 -12 -5 -26 -11 -30
-8 -4 -9 6 -6 33 5 36 3 41 -21 52 -23 11 -29 10 -43 -8 -10 -12 -19 -27 -22
-34 -2 -6 -8 -9 -12 -5 -4 4 0 19 9 32 20 32 20 43 -1 64 -21 22 -34 21 -56
-1 -10 -10 -23 -15 -29 -11 -7 4 0 15 18 27 16 12 48 40 71 64 52 55 61 98 39
187 -10 37 -15 86 -12 115 4 45 2 51 -15 51 -15 0 -19 -7 -20 -32z"/>
<path d="M570 725 c-13 -17 -5 -146 11 -156 21 -13 156 -11 165 3 4 6 9 43 10
80 2 53 -1 70 -12 75 -26 10 -165 8 -174 -2z m154 -74 c-1 -25 -7 -47 -15 -52
-13 -8 -95 -6 -104 2 -8 9 -13 58 -8 79 5 19 12 21 67 18 l61 -3 -1 -44z"/>
<path d="M590 524 c0 -26 90 -35 131 -13 32 17 14 24 -62 25 -49 0 -69 -3 -69
-12z"/>
<path d="M584 468 c-3 -4 -2 -8 1 -8 4 0 -3 -16 -15 -35 -21 -34 -21 -73 0
-60 6 3 19 23 30 43 l20 37 -3 -57 c-3 -71 13 -76 32 -11 l14 48 11 -40 c6
-22 15 -46 20 -54 14 -22 25 7 15 43 -5 17 -9 40 -9 51 0 17 3 15 15 -8 39
-75 71 -64 36 14 l-20 44 -71 1 c-39 0 -73 -3 -76 -8z"/>
<path d="M520 349 c0 -22 16 -42 50 -59 36 -18 115 -32 125 -22 3 3 15 7 26 9
47 7 104 65 75 76 -8 3 -20 -1 -27 -9 -19 -23 -59 -40 -99 -43 -39 -2 -108 23
-116 43 -5 13 -34 18 -34 5z"/>
</g>
</svg>
